<svg width="69" height="47" viewBox="0 0 69 47" fill="none" xmlns="http://www.w3.org/2000/svg">
<path d="M63.384 20.7081V22.8186H64.151C64.9601 22.8186 65.5942 22.5178 65.5942 21.7155C65.5942 21.1845 65.3326 20.7059 64.3128 20.7059C63.9936 20.7059 63.8207 20.6945 63.384 20.7081ZM61.2646 28.1633V18.6387C61.7812 18.6387 64.151 18.6387 64.417 18.6387C66.9464 18.6387 67.8465 19.931 67.8465 21.6882C67.8465 23.4568 66.7868 24.1793 66.2836 24.4391L68.9637 28.1633H66.3944L64.1643 24.8608H63.384V28.1633H61.2646Z" fill="#F41707"/>
<path d="M58.717 24.0653C58.717 26.9781 56.917 28.1633 54.9307 28.1633C52.5476 28.1633 50.8916 26.7616 50.8916 23.9696V18.6387H53.0109V23.507C53.0109 24.9907 53.4476 26.1211 54.9307 26.1211C56.2142 26.1211 56.5977 25.1548 56.5977 23.63V18.6387H58.717V24.0653Z" fill="#F41707"/>
<path d="M45.6202 46.9034H0V0H45.6202V16.0478H43.5054V2.17434H2.11264V44.7291H43.5054V30.7508H45.6202V46.9034Z" fill="#F41707"/>
<path d="M36.5115 28.1661L32.1155 22.4476V28.1661H30.127V18.6367H31.8229L36.2211 24.3803L36.2167 18.6367H38.203L38.2074 28.1661H36.5115Z" fill="#F41707"/>
<path d="M40.7568 18.6348H48.4382V20.6769H45.6561V28.1663H43.5368V20.6769H40.7568V18.6348Z" fill="#F41707"/>
<path d="M9.31934 18.6348H11.4386V22.7874L14.4713 18.6348H17.014L13.5314 23.0336L17.2911 28.1663H14.6043L11.4386 23.6307V28.1663H9.31934V18.6348Z" fill="#F41707"/>
<path d="M22.8177 26.2021C24.5269 26.2021 25.4136 24.9599 25.4136 23.4009C25.4136 21.7098 24.2697 20.5998 22.8177 20.5998C21.3279 20.5998 20.2239 21.7098 20.2239 23.4009C20.2239 24.985 21.3789 26.2021 22.8177 26.2021ZM22.8177 18.6191C25.5555 18.6191 27.5995 20.4539 27.5995 23.4009C27.5995 26.2021 25.5555 28.1827 22.8177 28.1827C20.082 28.1827 18.0381 26.3457 18.0381 23.4009C18.0381 20.7183 19.9535 18.6191 22.8177 18.6191Z" fill="#F41707"/>
</svg>
