<svg width="63" height="55" viewBox="0 0 63 55" fill="none" xmlns="http://www.w3.org/2000/svg">
<g clip-path="url(#clip0_127_262)">
<path fill-rule="evenodd" clip-rule="evenodd" d="M9.50628 1.11325e-05L53.5694 0.0633055C58.7832 0.0707068 63.0062 3.76705 62.9997 8.31735L62.9464 46.7735C62.9402 51.3233 58.7067 55.0074 53.493 55L9.43009 54.9372C4.21684 54.929 -0.00640633 51.233 7.29537e-06 46.6827L0.0528556 8.227C0.0597823 3.6767 4.29303 -0.00739022 9.50679 1.11325e-05H9.50628Z" fill="#2B476F"/>
<path fill-rule="evenodd" clip-rule="evenodd" d="M26.0901 21.2486C25.5283 21.2427 24.9872 21.059 24.5636 20.7298C23.45 19.8436 22.2129 18.9945 20.2737 18.9917C18.2934 18.9886 16.8896 19.8339 16.8876 21.3448C16.886 22.5607 17.628 23.1518 20.0615 24.1528L23.1532 25.3727C27.6902 27.1848 29.8746 29.1775 29.87 32.4979C29.8657 36.9844 25.7766 39.7816 20.3309 39.7734C17.1149 39.7686 13.5653 38.4695 11.5476 36.4806C10.8883 35.8895 10.517 35.2624 10.5181 34.5624C10.5607 33.237 11.7585 32.3532 13.0786 32.355C13.6105 32.3517 14.1246 32.5232 14.5248 32.8358C15.6374 33.8705 17.5761 35.3459 20.3391 35.35C22.7732 35.3536 24.2199 34.3248 24.2222 32.6669C24.224 31.2665 23.275 30.6756 20.7591 29.6425L17.8309 28.4588C13.5007 26.6835 11.2354 24.5797 11.2397 21.4472C11.2451 17.3578 15.1266 14.5634 20.2835 14.5711C24.3689 14.5772 26.7592 16.2744 27.918 17.4571C28.4947 18.0109 28.6591 18.5642 28.6584 19.0399C28.6568 20.2923 27.3764 21.2491 26.0962 21.2471L26.0901 21.2486ZM42.188 39.3631L36.0776 39.3541C34.427 39.3516 33.2336 38.2812 33.2354 36.8081L33.261 17.5737C33.2631 16.0998 34.4596 15.033 36.1102 15.0353L42.2206 15.0445C51.0506 15.0578 57.0248 19.9302 57.015 27.1521C57.0056 34.3738 50.8954 39.3761 42.188 39.3631ZM42.1744 19.5379L38.8324 19.533L38.8119 34.8633L42.1539 34.8681C47.6414 34.8763 51.3177 31.8236 51.3241 27.1434C51.3303 22.4629 47.8269 19.5466 42.1744 19.5379Z" fill="url(#paint0_linear_127_262)"/>
</g>
<defs>
<linearGradient id="paint0_linear_127_262" x1="10.543" y1="15.8165" x2="52.0271" y2="40.6392" gradientUnits="userSpaceOnUse">
<stop stop-color="#F44236"/>
<stop offset="0.760784" stop-color="#FF5253"/>
<stop offset="1" stop-color="#F44236"/>
</linearGradient>
<clipPath id="clip0_127_262">
<rect width="63" height="55" fill="white"/>
</clipPath>
</defs>
</svg>
